<svg xmlns="http://www.w3.org/2000/svg" viewBox="0 0 32 32" fill="none">
  <!-- Cloud outline -->
  <path d="M6 22h20c2.2 0 4-1.8 4-4 0-1.9-1.3-3.4-3.1-3.9C26.9 10.5 23.7 8 20 8c-2.8 0-5.3 1.4-6.8 3.5C12.5 11.2 11.8 11 11 11c-2.2 0-4 1.8-4 4 0 .2 0 .4.1.6C4.7 16.2 3 18 3 20c0 1.1.9 2 2 2h1z" stroke="#00ff88" stroke-width="1.5" stroke-linecap="round" stroke-linejoin="round"/>
  <!-- Castle tower center -->
  <rect x="14" y="14" width="4" height="8" stroke="#00ff88" stroke-width="1"/>
  <!-- Castle tower left -->
  <rect x="10" y="17" width="3" height="5" stroke="#00ff88" stroke-width="1"/>
  <!-- Castle tower right -->
  <rect x="19" y="17" width="3" height="5" stroke="#00ff88" stroke-width="1"/>
  <!-- Battlements -->
  <rect x="14.5" y="13" width="1" height="1.5" fill="#00ff88"/>
  <rect x="16.5" y="13" width="1" height="1.5" fill="#00ff88"/>
</svg>
